<?xml version="1.0" encoding="UTF-8" standalone="no"?>
<svg
   xmlns:dc="http://purl.org/dc/elements/1.1/"
   xmlns:cc="http://creativecommons.org/ns#"
   xmlns:rdf="http://www.w3.org/1999/02/22-rdf-syntax-ns#"
   xmlns:svg="http://www.w3.org/2000/svg"
   xmlns="http://www.w3.org/2000/svg"
   xmlns:xlink="http://www.w3.org/1999/xlink"
   version="1.1"
   id="svg4517"
   viewBox="0 0 884.77406 266.45626"
   height="75.199875mm"
   width="249.7029mm">
  <defs
     id="defs4519">
    <linearGradient
       id="linearGradient4621">
      <stop
         style="stop-color:#d6af4b;stop-opacity:1"
         offset="0"
         id="stop4625" />
      <stop
         style="stop-color:#ab8731;stop-opacity:1"
         offset="1"
         id="stop4623" />
    </linearGradient>
    <linearGradient
       id="linearGradient4491">
      <stop
         style="stop-color:#ab8731;stop-opacity:1"
         offset="0"
         id="stop4493" />
      <stop
         style="stop-color:#d6af4b;stop-opacity:1"
         offset="1"
         id="stop4495" />
    </linearGradient>
    <linearGradient
       id="linearGradient4425">
      <stop
         style="stop-color:#ffffff;stop-opacity:1;"
         offset="0"
         id="stop4427" />
      <stop
         style="stop-color:#ffffff;stop-opacity:0;"
         offset="1"
         id="stop4429" />
    </linearGradient>
    <radialGradient
       xlink:href="#linearGradient4425"
       id="radialGradient4431"
       cx="371.30304"
       cy="475.07486"
       fx="371.30304"
       fy="475.07486"
       r="470.32043"
       gradientTransform="matrix(0.91240015,0,0,0.16256792,-111.05145,-50.749525)"
       gradientUnits="userSpaceOnUse" />
    <radialGradient
       xlink:href="#linearGradient4425"
       id="radialGradient4435"
       gradientUnits="userSpaceOnUse"
       gradientTransform="matrix(0.91240015,0,0,0.16256792,-111.05145,-50.749525)"
       cx="931.58398"
       cy="1235.3586"
       fx="931.58398"
       fy="1235.3586"
       r="470.32043" />
    <radialGradient
       xlink:href="#linearGradient4491"
       id="radialGradient4497"
       cx="1103.3331"
       cy="1538.2604"
       fx="1103.3331"
       fy="1538.2604"
       r="772.09601"
       gradientTransform="matrix(0.54036577,0.17104151,-0.02050325,0.05858668,-14.218007,-55.61702)"
       gradientUnits="userSpaceOnUse" />
    <radialGradient
       xlink:href="#linearGradient4425"
       id="radialGradient4509"
       gradientUnits="userSpaceOnUse"
       gradientTransform="matrix(0.91240015,0,0,0.16256792,-111.05145,-50.749525)"
       cx="207.68176"
       cy="1312.7131"
       fx="207.68176"
       fy="1312.7131"
       r="470.32043" />
    <filter
       height="1.0533314"
       y="-0.026665697"
       width="1.015484"
       x="-0.0077420175"
       id="filter4234"
       style="color-interpolation-filters:sRGB">
      <feGaussianBlur
         id="feGaussianBlur4236"
         stdDeviation="2.8106207" />
    </filter>
    <radialGradient
       gradientUnits="userSpaceOnUse"
       gradientTransform="matrix(1.7198084,0.6434374,-0.06591272,0.20134826,-454.15543,304.89953)"
       r="263.23242"
       fy="1032.6764"
       fx="725.50134"
       cy="1032.6764"
       cx="725.50134"
       id="radialGradient4619"
       xlink:href="#linearGradient4621" />
    <filter
       height="1.0157626"
       y="-0.0078813046"
       width="1.00291"
       x="-0.0014550078"
       id="filter4648"
       style="color-interpolation-filters:sRGB">
      <feGaussianBlur
         id="feGaussianBlur4650"
         stdDeviation="0.31917103" />
    </filter>
    <clipPath
       id="clipPath5208"
       clipPathUnits="userSpaceOnUse">
      <path
         id="path5210"
         d="m 429.74046,171.65577 c -0.17985,-0.004 -0.36045,-1e-5 -0.54005,0.0101 l -29.84908,0 c -1.75965,0.23963 -3.45638,0.91921 -4.88764,1.9567 -2.33549,1.69295 -3.92318,4.35473 -4.28862,7.1902 l -13.92214,66.34644 c -0.18496,1.34732 0.0662,2.75011 0.70793,3.95367 0.60669,1.13785 1.55859,2.09338 2.70139,2.7119 1.14285,0.61846 2.4721,0.89717 3.77127,0.7908 l 30.92459,0 c 2.13101,-0.23343 4.17215,-1.205 5.6819,-2.7061 1.29905,-1.29175 2.20181,-2.96631 2.56296,-4.75027 l 13.92325,-66.34644 c 0.49806,-1.64109 0.36759,-3.45916 -0.35852,-5.01537 -0.60164,-1.28934 -1.60397,-2.39332 -2.8375,-3.12466 -1.07935,-0.63992 -2.33089,-0.99295 -3.58974,-1.01695 z m -422.9957002,0.0101 18.7361102,6.28066 151.77644,0 -16.08917,76.66905 40.01244,0 c 1.63243,-0.18789 3.19805,-0.89744 4.4066,-1.99576 1.12617,-1.02354 1.93827,-2.37842 2.30318,-3.84513 l 14.26139,-67.96192 c 0.61871,-1.53225 0.63404,-3.29281 0.0418,-4.83524 -0.4955,-1.2908 -1.40821,-2.4228 -2.57202,-3.18956 -1.16381,-0.76676 -2.57306,-1.16472 -3.97209,-1.1221 l -208.9048302,0 z m 229.3484302,0 2.65713,3.17613 -16.74042,79.77358 17.50621,0 17.4064,-82.94971 z m 36.31941,0 2.18631,3.97827 -9.9047,47.20234 33.62371,-12.29059 -9.42591,6.96869 -6.21846,29.63463 -9.95465,0 4.35559,-20.7551 -13.79737,4.60813 -3.38892,16.14697 c -0.42244,1.38399 -0.31444,2.91891 0.29729,4.23216 0.71014,1.5247 2.09865,2.72692 3.72358,3.22421 l 28.65552,0 c 2.22854,-0.36002 4.30308,-1.57833 5.68526,-3.33937 0.93663,-1.19331 1.55842,-2.62513 1.78804,-4.117 l 10.01587,-47.73041 -31.37612,10.90221 7.10908,-5.5076 5.03862,-24.01063 9.53141,0 -3.50582,16.70518 14.73674,-5.39572 2.37237,-11.30946 c 0.19675,-0.93764 0.37346,-1.88795 0.34267,-2.84498 -0.0308,-0.95703 -0.26193,-1.90934 -0.69661,-2.76556 -0.55225,-1.08789 -1.42567,-2.01562 -2.48581,-2.63802 -1.06007,-0.62238 -2.3022,-0.93801 -3.53532,-0.89834 z m 55.87918,0 3.50354,3.0967 -15.45269,73.635 c -0.30955,1.57601 0.16835,3.28415 1.25368,4.48063 1.04155,1.14821 2.61885,1.80358 4.17971,1.73738 l 36.42949,0 7.03427,-33.51771 -14.17629,-1.51255 -5.78628,27.57389 -11.51683,0 13.20392,-62.92307 -2.88518,-3.42337 14.65053,0 -2.32241,11.06669 -4.43384,3.58224 19.2591,-2.5474 2.53914,-12.10153 c 0.61802,-1.81453 0.42981,-3.88094 -0.50601,-5.55795 -0.57868,-1.03705 -1.43132,-1.92347 -2.45068,-2.54852 -1.0194,-0.62504 -2.20332,-0.98734 -3.40252,-1.04043 z m 119.64358,0 3.72248,3.49385 -15.10891,71.99949 25.80436,12.55228 19.79801,-17.43567 14.81732,-70.60995 -16.92196,0 -15.2518,72.67969 3.04399,5.65301 -13.43879,-5.65301 15.25182,-72.67969 z m 59.93861,0 4.22394,2.22967 -14.94776,71.23313 c -0.46753,2.52948 0.0453,5.02154 1.4046,6.83219 0.93456,1.24503 2.25646,2.16875 3.79844,2.65472 l 31.59856,0 1.49531,-7.12303 -29.03551,0 7.81255,-3.21864 5.67163,-27.03014 -10.70003,0 29.48832,-9.16033 1.8164,-8.65465 -18.0587,5.68549 5.09868,-24.30151 21.11637,0 1.91965,-9.1469 z m 52.93617,0 3.05308,3.37192 -16.69953,79.57779 17.69681,0 6.64173,-31.6494 11.98993,-4.43025 -7.57091,36.07965 17.14317,0 10.9439,-52.15274 -30.20072,9.51274 6.53966,-31.16281 8.84832,0 -4.02417,19.17763 -8.72259,7.30543 23.68507,-7.98004 4.15131,-19.78175 c 0.52965,-1.89653 0.0774,-4.03345 -1.17769,-5.56244 -1.17988,-1.43735 -3.03836,-2.30941 -4.91374,-2.30573 z m 56.88784,0 3.26751,3.0967 -12.42909,59.23338 29.97611,-11.14612 -4.51096,21.49573 6.1686,2.81365 -26.09255,0 -1.56566,7.45637 31.68815,0 c 1.37417,-0.45883 2.65008,-1.20114 3.72248,-2.16467 1.5576,-1.39972 2.675,-3.26969 3.1609,-5.2917 l 14.5235,-69.21267 186.8024,0 18.4365,-6.28067 -225.08348,0 2.92368,2.7029 -8.33556,39.72348 -11.18106,4.45823 9.8389,-46.88461 z m -423.96462,9.1469 11.30133,0 -13.92332,66.34644 -17.17264,0 6.46244,-2.81365 z m 214.50953,0 10.34146,0 -13.92215,66.34644 -16.68708,0 6.93556,-2.81365 z"
         style="opacity:1;fill:#ff0000;fill-opacity:1;fill-rule:evenodd;stroke:none;stroke-width:1px;stroke-linecap:butt;stroke-linejoin:miter;stroke-opacity:1" />
    </clipPath>
    <radialGradient
       r="470.32043"
       fy="716.96326"
       fx="805.73828"
       cy="716.96326"
       cx="805.73828"
       gradientTransform="matrix(0.91240015,0,0,0.16256792,-111.05145,-50.749525)"
       gradientUnits="userSpaceOnUse"
       id="radialGradient5218"
       xlink:href="#linearGradient4425" />
  </defs>
  <metadata
     id="metadata4522">
    <rdf:RDF>
      <cc:Work
         rdf:about="">
        <dc:format>image/svg+xml</dc:format>
        <dc:type
           rdf:resource="http://purl.org/dc/dcmitype/StillImage" />
        <dc:title></dc:title>
      </cc:Work>
    </rdf:RDF>
  </metadata>
  <path
     id="path4200"
     d="M 43.485663,6.7457233 47.628242,14.081661 29.249335,101.09729 38.682929,98.976196 89.091132,80.923458 74.80207,91.286739 64.249335,141.23792 l -10.320312,0 7.572265,-35.84961 -8.908203,2.26757 -25.96289,8.4961 -6.609375,31.28711 c -0.66213,3.07443 0.104675,6.41159 2.046875,8.92187 1.08056,1.39664 2.506246,2.53897 4.123047,3.30274 l 52.503906,0 c 9.27308,0 16.009347,-4.49881 19.488276,-7.88086 2.733936,-2.65778 4.980316,-5.86621 5.837896,-9.53125 l 18.05273,-85.474616 -7.51563,1.148437 -46.843741,15.947266 9.705078,-7.375 8.943359,-42.345703 9.701172,0 -6.388672,30.251953 8.076168,-1.072266 27.101566,-9.720703 4.57812,-21.671875 c 0.3139,-1.48612 0.57636,-3.002052 0.44336,-4.513672 -0.133,-1.51159 -0.63619,-2.985794 -1.40039,-4.308594 -1.10285,-1.90905 -2.73202,-3.5261622 -4.67187,-4.6386722 -1.93985,-1.1125 -4.18529,-1.7173515 -6.4375,-1.7324215 l -73.878907,0 z m 90.007807,0 -2.97656,14.0898437 32.95508,0 -29.32031,138.828133 32.85351,0 6.33789,-3.4375 27.60547,-130.710945 -14.25586,-4.679688 42.99805,0 4.92773,-0.316406 2.91016,-13.7734377 -104.03516,0 z m 107.82031,0 4.47071,4.9746097 -31.2461,147.943367 31.66797,0 4.55664,-3.4375 10.34961,-49 -16.99609,0 36.91601,-11.830086 -13.57421,64.267586 30.00195,0 3.4043,-3.4375 28.69531,-135.859383 c 0.46725,-3.05147 -0.3491,-6.267772 -2.22266,-8.757812 -2.19982,-2.9236202 -5.83953,-4.7754712 -9.56445,-4.8632817 l -76.45899,0 z m 99.27735,0 5.77148,6.2167967 -30.98437,146.70118 33.33594,0 2.25195,-3.4375 11.72461,-55.50586 20.90625,-7.57032 -14.04688,66.51368 32.29492,0 1.0586,-3.4375 19.84765,-93.980476 -55.55664,17.140624 12.2793,-58.134765 15.14258,0 -7.95899,37.683594 -14.625,12.019531 -1.76757,1.476562 44.56836,-14.71289 0.76562,-1.144532 7.5293,-35.648437 c 0.94561,-3.42584 0.10113,-7.271748 -2.20117,-10.023437 -2.17908,-2.6044102 -5.6073,-4.1779907 -9.06055,-4.1562507 l -71.27539,0 z m 140.47461,0 -2.90821,13.7734377 0.67188,0.316406 31.47656,0 -28.5957,135.390633 0.75391,3.4375 32.85351,0 28.24219,-133.716805 -15.56836,-5.111328 50.01367,0 2.97461,-14.0898437 -99.91406,0 z m 108.625,0 5.64258,6.0781247 -30.28711,143.402352 2.66992,3.4375 33.33594,0 12.32226,-58.34571 17.5625,-6.359376 -12.93945,61.267586 3.88867,3.4375 32.29492,0 20.30664,-96.142586 -5.07031,-1.27539 -51.12305,15.771484 1.57422,-7.449219 2.73242,1.863281 44.56836,-14.71289 7.70313,-36.466797 c 0.9674,-3.5046 0.10325,-7.438926 -2.25196,-10.253906 -2.22919,-2.6642802 -5.73683,-4.2741837 -9.26953,-4.2519537 l -73.66015,0 z m 101.26758,0 7.79101,4.0195317 -27.10937,128.365235 c -0.9214,3.46428 0.39054,8.55336 2.62304,12.3125 2.1003,3.53657 8.98887,8.22071 12.35547,8.22071 l 59.52149,0 2.77539,-13.13282 -6.74414,-3.14062 -40.17188,0 6.91797,-2.79297 10.52344,-49.828129 -6.08203,-1.888672 -7.86719,0 49.28711,-15 3.37109,-15.955078 -6.95117,-1.148437 -26.28906,8.107421 9.05664,-42.892578 39.77929,0 3.21876,-15.2460937 -86.00586,0 z m 90.15429,0 6.56446,5.7382817 -30.35938,143.742195 7.0918,3.4375 33.00195,0 15.00195,-71.03907 2.76953,-0.867188 2.17969,68.468758 8.47266,3.4375 30.62695,0 -6.7832,-82.703133 14.47851,-4.53125 13.8711,-65.6835937 -35.2793,0 -12.4043,58.7304687 -14.02929,4.669922 13.39062,-63.4003907 -48.59375,0 z m -150.82812,14.5058597 12.14843,0 -7.71874,36.537109 -14.69727,12.082032 10.26758,-48.619141 z m -351.18946,0.828125 17.42188,0 -11.92383,56.453125 -18.95703,7.28125 13.45898,-63.734375 z m 150.64454,149.576172 -30.38868,0.01 c -1.75965,0.23963 -3.45546,0.91956 -4.88671,1.95703 -2.33549,1.69297 -3.92363,4.35397 -4.28907,7.18945 l -13.92187,66.34571 c -0.18496,1.34758 0.0653,2.75162 0.70703,3.95508 0.60669,1.13775 1.55837,2.09236 2.70117,2.71093 1.14285,0.61846 2.47231,0.89728 3.77148,0.79102 l 30.92579,0 c 2.13101,-0.23349 4.17189,-1.20366 5.68164,-2.70508 1.29905,-1.29163 2.20135,-2.9678 2.5625,-4.75195 l 0.2832,-1.34571 c 0.0163,-0.0719 0.0363,-0.14415 0.0508,-0.21679 l 13.62891,-64.93946 c 0.0442,-0.15993 0.0884,-0.31983 0.12109,-0.48242 0.34001,-1.48468 0.18071,-3.07746 -0.46484,-4.46094 -0.58914,-1.26267 -1.57129,-2.34433 -2.7793,-3.06054 -1.05694,-0.62667 -2.28284,-0.97259 -3.51562,-0.9961 -0.0459,-0.001 -0.0909,0.002 -0.13672,0.002 -0.0169,-4.2e-4 -0.0338,-0.002 -0.0508,-0.002 z m -422.9941412,0.01 18.7363282,6.28125 151.775383,0 -16.08984,76.66797 40.01367,0 c 3.30448,0 7.3427,-1.97907 9.23438,-3.67188 1.11066,-0.99383 1.77169,-1.81912 2.25586,-3.76562 l 13.96484,-66.55469 c 0.60593,-1.50053 0.62263,-3.22387 0.043,-4.73437 -0.48523,-1.26408 -1.37981,-2.37412 -2.51953,-3.125 -1.13971,-0.7509 -2.52054,-1.13939 -3.89063,-1.09766 l -213.5234312,0 z m 229.3476512,0 2.6582,3.17578 -16.74218,79.77344 17.50781,0 4.125,-1.7168 17.04687,-81.23242 -24.5957,0 z m 36.32031,0 2.18555,3.97851 -9.9043,47.20118 3.60352,-1.0586 29.32812,-10.7207 -8.73437,6.45898 -5.89063,28.07032 -6.84375,0 4.26563,-20.32422 -13.51172,4.51172 -3.63672,1.22851 -3.38867,16.14649 c -0.42243,1.38399 -0.31487,2.91906 0.29687,4.23242 0.71015,1.5246 2.09967,2.72721 3.72461,3.22461 l 28.6543,0 c 2.13769,-0.56467 6.69106,-2.59831 8.5957,-4.98633 0.92646,-1.16165 1.52507,-2.57217 1.75,-4.0332 l 9.8086,-46.74219 -2.66406,0.57422 -27.23829,9.46484 6.13868,-4.75586 4.89453,-23.32422 6.50781,0 -3.50586,16.70508 2.9375,-0.53515 14.43164,-5.28321 2.32422,-11.07617 c 0.19268,-0.91822 0.36604,-1.84795 0.33594,-2.78516 -0.0302,-0.93721 -0.25792,-1.87049 -0.6836,-2.70898 -0.54088,-1.06537 -1.39543,-1.97251 -2.43359,-2.58203 -1.03812,-0.60951 -2.25528,-0.91969 -3.46289,-0.88086 l -37.88477,0 z m 55.87891,0 3.50391,3.0957 -15.45313,73.63672 c -0.30955,1.57613 0.16858,3.2841 1.25391,4.48047 1.04155,1.14831 2.61883,1.80231 4.17969,1.73633 l 36.42968,0 1.66797,-1.7168 6.88867,-32.82422 -13.88281,-1.48047 -1.81641,0.99219 -5.45898,26.00977 -9.66992,0 12.93164,-61.61914 -2.66797,-3.16407 12.53125,0 -2.32227,11.06641 -4.43359,3.58203 19.25781,-2.54687 1.40039,-0.43946 2.48633,-11.85156 c 0.60523,-1.77696 0.4204,-3.79911 -0.49609,-5.44141 -0.56671,-1.01558 -1.40219,-1.884 -2.40039,-2.49609 -0.99826,-0.61211 -2.1577,-0.96753 -3.33203,-1.01953 l -40.59766,0 z m 119.45312,0 3.64649,3.42187 -14.79688,70.50782 -0.0469,1.5625 25.80469,12.55273 19.79883,-17.43555 14.8164,-70.60937 -17.77539,0 -14.93555,71.17383 0.53711,1.50586 2.0918,3.88476 -12.22266,-5.14258 14.98829,-71.42187 -21.90626,0 z m 58.69727,0 4.13672,2.18359 -14.63672,69.75782 c -0.45779,2.47725 0.25623,4.78058 1.375,6.6914 1.18844,2.02982 2.69135,3.54803 5.03516,4.31641 l 31.59961,0 1.49414,-7.12305 -2,-1.57031 -23.22461,0 4.00195,-1.64844 5.67188,-27.0293 -1.67969,-0.94335 -5.98438,0 26.45313,-8.2168 1.8164,-8.65625 -2.10742,-0.57422 -15.67383,4.93555 4.82032,-22.97657 21.11718,0 1.91797,-9.14648 -44.13281,0 z m 51.8418,0 2.99023,3.30273 -16.35351,77.92969 2.24218,1.7168 17.69727,0 6.64062,-31.64844 8.52344,-3.15039 -6.9414,33.08203 2.83789,1.7168 17.14257,0 10.94532,-52.15235 -3.42188,-0.63867 -26.39453,8.31446 0.85352,-4.06836 1.40234,1.22461 23.68555,-7.97852 4.15039,-19.7832 c 0.52965,-1.89652 0.0773,-4.03352 -1.17774,-5.5625 -1.17988,-1.43736 -3.03673,-2.30837 -4.91211,-2.30469 l -39.91015,0 z m 55.70898,0 3.20117,3.0332 -12.17187,58.00586 3.51367,1.29102 25.25,-9.38867 -3.82617,18.23242 6.04101,2.75586 -25.55273,0 -1.5332,7.30273 3.5957,1.7168 31.68945,0 c 1.37417,-0.45894 2.65026,-1.20037 3.72266,-2.16406 1.5576,-1.39945 2.67426,-3.27097 3.16016,-5.29297 l 14.52343,-69.21094 186.80274,0 18.43554,-6.28125 -229.36718,0 2.86328,2.64648 -8.16406,38.90235 -6.42579,2.5625 9.25782,-44.11133 -25.01563,0 z m -415.22656,9.14648 6.26758,0 -13.59571,64.78321 -12.01757,0 6.33007,-2.75586 13.01563,-62.02735 z m 210.07031,0 9.74805,0 -13.5957,64.78321 -13.16211,0 3.08398,-1.25 0.9082,-1.50586 13.01758,-62.02735 z m 171.50977,0 5.69531,0 -3.90039,18.5918 -6.91016,5.78711 5.11524,-24.37891 z"
     style="opacity:0.5;fill:#000000;fill-rule:evenodd;stroke:none;stroke-width:1px;stroke-linecap:butt;stroke-linejoin:miter;stroke-opacity:1;filter:url(#filter4234)" />
  <path
     style="fill:#808080;fill-rule:evenodd;stroke:none;stroke-width:1px;stroke-linecap:butt;stroke-linejoin:miter;stroke-opacity:1"
     d="m 43.48602,6.7460086 4.14213,7.3350304 -18.37793,87.015521 9.43329,-2.120764 50.4071,-18.051877 -14.28911,10.36218 -10.55123,49.952491 -10.32186,0 7.57284,-35.85073 -8.9084,2.26803 -25.96363,8.49548 -6.60747,31.28773 c -0.66213,3.07443 0.10279,6.41247 2.04499,8.92275 1.08056,1.39664 2.50723,2.53818 4.12403,3.30195 l 52.50334,0 c 9.27308,0 16.01059,-4.49951 19.489524,-7.88156 2.733926,-2.65778 4.979596,-5.86541 5.837176,-9.53045 l 18.05267,-85.475511 -7.51529,1.15009 -46.8431,15.94667 9.70425,-7.37548 8.94362,-42.34576 9.70101,0 -6.38878,30.25171 8.075324,-1.07128 27.102876,-9.72126 4.57848,-21.67222 c 0.3139,-1.48612 0.57464,-3.00161 0.44164,-4.51323 -0.133,-1.51159 -0.63537,-2.98509 -1.39957,-4.30789 -1.10285,-1.90905 -2.73252,-3.5272402 -4.67237,-4.6397502 -1.93985,-1.1125 -4.18453,-1.7168002 -6.43674,-1.7318702 z m 197.82764,0 4.4708,4.9736704 -31.24619,147.944121 31.6686,0 4.55608,-3.43679 10.3496,-49.0015 -16.99541,0 36.91484,-11.828561 -13.57332,64.266851 30.00233,0 3.40398,-3.43679 28.69456,-135.859381 c 0.46725,-3.05147 -0.34961,-6.26886 -2.22317,-8.7589 -2.19982,-2.9236202 -5.83954,-4.7749102 -9.56446,-4.8627204 z m 99.27818,0 5.77112,6.2171104 -30.98375,146.700681 33.33591,0 2.25194,-3.43679 11.72465,-55.5069 20.90613,-7.569411 -14.04801,66.513101 32.29478,0 1.05822,-3.43679 19.84901,-93.981351 -55.5563,17.14033 12.27933,-58.1348 15.14143,0 -7.95899,37.68421 -14.62517,12.01939 -1.76759,1.47572 44.56883,-14.71156 0.7659,-1.14489 7.52913,-35.6485 c 0.94561,-3.42584 0.10051,-7.2724 -2.20179,-10.02409 -2.17908,-2.6044102 -5.60666,-4.1772004 -9.05991,-4.1554604 z m 249.09892,0 5.64198,6.0781504 -30.28713,143.402851 2.66999,3.43679 33.33606,0 12.3231,-58.34531 17.56292,-6.359171 -12.93971,61.267691 3.88842,3.43679 32.29368,0 20.3066,-96.142551 -5.0702,-1.27559 -51.12187,15.77245 1.57444,-7.45014 2.73199,1.86254 44.56774,-14.71156 7.703,-36.46776 c 0.9674,-3.5046 0.1033,-7.43935 -2.2519,-10.25433 -2.2292,-2.6642802 -5.7363,-4.2730804 -9.269,-4.2508504 z m 101.26761,0 7.7916,4.0185804 -27.1105,128.366731 c -0.9214,3.46428 0.3918,8.55163 2.6243,12.31077 2.1003,3.53657 8.9874,8.22171 12.354,8.22171 l 59.5226,0 2.7746,-13.13213 -6.7441,-3.14121 -40.1707,0 6.917,-2.79278 10.5234,-49.829071 -6.0815,-1.88846 -7.8684,0 49.2881,-14.99881 3.37,-15.95497 -6.951,-1.15009 -26.289,8.10868 9.0578,-42.89228 39.778,0 3.2195,-15.2466704 z m 90.1533,0 6.5647,5.7379904 -30.3587,143.743011 7.0918,3.43679 33.0011,0 15.0027,-71.038761 2.7702,-0.86697 2.1783,68.468941 8.4733,3.43679 30.6274,0 -6.7834,-82.702431 14.4778,-4.53189 13.8721,-65.6834704 -35.2806,0 -12.4031,58.7300604 -14.0287,4.66982 13.3897,-63.3998804 z m -647.61865,5.4e-4 -2.97623,14.0893204 32.95615,0 -29.32069,138.827441 32.8538,0 6.33646,-3.43677 27.60641,-130.710471 -14.25602,-4.6802 42.99853,0 4.92731,-0.31629 2.91013,-13.7730304 z m 347.57271,0 -2.90795,13.7730304 0.67201,0.31629 31.4755,0 -28.59523,135.390671 0.75414,3.43677 32.85382,0 28.24219,-133.715831 -15.56924,-5.11161 50.01354,0 2.97519,-14.0893204 z m 149.21914,14.5041504 12.14812,0 -7.71792,36.53828 -14.69875,12.08158 z m -351.18904,0.82859 17.42109,0 -11.92307,56.45374 -18.95826,7.28008 z"
     id="path4370" />
  <path
     style="fill:#333333;fill-rule:evenodd;stroke:none;stroke-width:1px;stroke-linecap:butt;stroke-linejoin:miter;stroke-opacity:1"
     d="m 589.69065,6.7461186 5.64198,6.0776704 3.36666,0.13967 -5.77107,-6.2173404 -3.23757,0 z m 101.26762,0 7.7915,4.0186604 5.7456,0.0925 -7.9708,-4.1111304 -5.5663,0 z m 90.1533,0 6.5648,5.7382704 7.7904,0.13182 -6.7164,-5.8700904 -7.6388,0 z m -601.43368,14.0903804 15.5692,5.11161 5.70179,-0.43187 -14.25605,-4.67974 -7.01494,0 z m -54.82455,22.77404 -7.45124,0.848 -27.72696,9.94482 8.075304,-1.0713 27.102896,-9.72152 z m 509.86162,14.17893 -14.69875,12.08155 -0.14717,0.6965 2.73188,1.86323 16.38639,-13.46766 -4.27235,-1.17362 z m -211.96321,4.45642 -55.55632,17.14005 -1.87855,1.67042 56.83323,-17.53453 0.60164,-1.27594 z m 407.59342,3.23069 -14.0288,4.6689 -0.9697,4.59317 23.7693,-7.91238 -8.7708,-1.34969 z m -752.92593,1.02113 -8.54253,1.37431 -13.35997,10.15338 12.19828,-4.15244 9.70422,-7.37525 z m 166.6978,40.727651 -7.21123,2.31084 19.88848,0 4.31819,-2.31084 -16.99544,0 z m -190.18869,34.01348 -9.08231,3.09295 18.75133,0 0.65285,-3.09295 -10.32187,0 z"
     id="path4437" />
  <path
     id="path4366"
     d="M 43.48602,6.7464386 47.62815,14.081489 29.25022,101.097 92.51596,78.439599 74.8015,91.286539 63.59741,144.33149 l -18.7513,0 7.74674,-36.67517 -25.96363,8.4955 -6.60747,31.28771 c -0.66213,3.07443 0.10279,6.41246 2.04499,8.92274 1.08056,1.39664 2.50717,2.53819 4.12403,3.30196 l 52.50334,0 c 4.18492,-0.23024 8.2751,-1.8578 11.42485,-4.54642 2.97213,-2.53699 5.0933,-6.00097 5.97063,-9.7503 l 18.4686,-87.440721 -59.04139,20.09903 13.35996,-10.15374 9.23382,-43.71984 17.95339,0 -6.38878,30.25171 27.72694,-9.94528 4.68308,-22.17104 c 0.32109,-1.5203 0.58834,-3.07057 0.4523,-4.61693 -0.13606,-1.54638 -0.64985,-3.05321 -1.43159,-4.40642 -1.12825,-1.95295 -2.79566,-3.6084702 -4.78013,-4.7465602 -1.98441,-1.13809 -4.28104,-1.7558702 -6.58503,-1.7712802 l -66.25474,0 z m 197.82764,0 4.4708,4.9736804 -31.24619,147.944111 31.6686,0 10.58751,-50.12775 -19.88853,0 44.12613,-14.139101 -13.57332,64.266851 30.00233,0 29.35378,-138.982981 c 0.47801,-3.12165 -0.35769,-6.41382 -2.27434,-8.96113 -2.25038,-2.9908502 -5.97362,-4.8838502 -9.78423,-4.9736804 l -73.44254,0 z m 99.27818,0 5.77112,6.2171004 -30.98375,146.700691 33.33591,0 12.3231,-58.34531 22.55962,-8.167781 -14.04801,66.513091 32.29478,0 20.30554,-96.142561 -56.83319,17.5344 12.63141,-59.80444 16.66793,0 -7.96434,37.71117 -16.38741,13.46814 44.56883,-14.71156 7.70189,-36.46775 c 0.96734,-3.50462 0.10335,-7.43935 -2.25187,-10.25433 -2.22918,-2.6643102 -5.73633,-4.2731004 -9.269,-4.2508604 l -70.42256,0 z m 252.33649,0 5.77113,6.2171004 -30.98386,146.700691 33.33606,0 12.3231,-58.34531 22.55964,-8.167781 -14.04801,66.513091 32.29368,0 20.3066,-96.142561 -56.83318,17.5344 12.63138,-59.80444 16.668,0 -7.96545,37.71117 -16.38633,13.46814 44.56778,-14.71156 7.7029,-36.46775 c 0.9674,-3.50462 0.1033,-7.43935 -2.2519,-10.25433 -2.2292,-2.6643102 -5.7363,-4.2731004 -9.269,-4.2508604 l -70.42254,0 z m 103.59624,0 7.9709,4.1108604 -27.7345,131.318181 c -1.1435,4.29905 -0.1218,9.09079 2.6851,12.59389 1.8217,2.27358 4.3533,4.00122 7.1717,4.89486 l 59.5226,0 2.7746,-13.13212 -54.6955,0 14.6977,-5.93399 10.5234,-49.829071 -20.1551,0 55.4933,-16.88729 3.37,-15.95497 -33.9846,10.48146 9.8024,-46.41514 39.778,0 3.2195,-15.2466704 -80.4395,0 z m 92.226,0 6.7163,5.8696904 -31.0574,147.048101 33.0011,0 15.0027,-71.038761 11.0514,-3.45959 2.3704,74.498351 30.6274,0 -6.7834,-82.702431 14.4778,-4.53189 1.183,-5.60317 12.6891,-60.0803004 -26.2239,0 -12.6889,60.0803004 -23.7693,7.91163 14.3594,-67.9919304 -40.9557,0 z m -655.25755,5.3e-4 -2.97623,14.0893204 32.95615,0 -29.32069,138.827441 32.8538,0 28.24112,-133.715841 -15.56923,-5.1116 50.01349,0 2.97627,-14.0893204 -99.17468,0 z m 348.31195,0 -2.97518,14.0893204 32.95621,0 -29.3218,138.827441 32.85382,0 28.24219,-133.715841 -15.56924,-5.1116 50.01354,0 2.97519,-14.0893204 -99.17473,0 z m -206.53981,15.3327404 21.25176,0 -11.96895,56.67049 -23.1271,8.88128 13.84429,-65.55177 z"
     style="fill:#b3b3b3;fill-rule:evenodd;stroke:none;stroke-width:1px;stroke-linecap:butt;stroke-linejoin:miter;stroke-opacity:1" />
  <path
     style="fill:#64542c;fill-opacity:1;fill-rule:evenodd;stroke:none;stroke-width:1px;stroke-linecap:butt;stroke-linejoin:miter;stroke-opacity:1"
     d="m 429.74046,171.65531 -30.38913,0.0101 c -1.75965,0.23963 -3.45638,0.91921 -4.88764,1.95668 -2.33549,1.69297 -3.92318,4.35474 -4.28862,7.19022 l -13.92214,66.34629 c -0.18496,1.34758 0.0662,2.7503 0.70793,3.95375 0.60669,1.13775 1.55859,2.09339 2.70139,2.71196 1.14285,0.61846 2.4721,0.89722 3.77127,0.79096 l 30.92459,0 c 2.13101,-0.23349 4.17215,-1.20501 5.6819,-2.70643 1.29905,-1.29163 2.20181,-2.96609 2.56296,-4.75024 l 0.28249,-1.34696 c 0.0163,-0.0719 0.0377,-0.1432 0.0522,-0.21584 l 13.62827,-64.94011 c 0.0442,-0.15993 0.0876,-0.31959 0.12025,-0.48218 0.34001,-1.48468 0.18153,-3.0781 -0.46402,-4.46158 -0.58914,-1.26267 -1.57051,-2.34357 -2.77852,-3.05978 -1.05694,-0.62667 -2.2832,-0.97331 -3.51598,-0.99682 -0.0459,-0.001 -0.0915,0.002 -0.13732,0.002 -0.0169,-4.2e-4 -0.033,-0.002 -0.05,-0.002 z m -422.9957002,0.0101 18.7361102,6.28066 151.77644,0 -16.08917,76.6692 40.01244,0 c 3.30448,0 7.34249,-1.97902 9.23417,-3.67183 1.11066,-0.99383 1.77132,-1.81928 2.25549,-3.76578 l 13.96641,-66.55441 c 0.60593,-1.50053 0.62156,-3.22517 0.0419,-4.73567 -0.48523,-1.26408 -1.37898,-2.37267 -2.5187,-3.12355 -1.13971,-0.7509 -2.52032,-1.14035 -3.89041,-1.09862 z m 229.3484302,0 2.65713,3.17612 -16.74042,79.77374 17.50621,0 4.12526,-1.71737 17.04671,-81.23249 z m 36.31941,0 2.18631,3.97827 -9.9047,47.20234 3.6045,-1.05945 29.32714,-10.71987 -8.73384,6.45743 -5.89061,28.07167 -6.84478,0 4.26596,-20.32545 -13.51144,4.51304 -3.63639,1.22839 -3.38893,16.14682 c -0.42243,1.38399 -0.31445,2.9191 0.29729,4.23246 0.71015,1.5246 2.09865,2.72671 3.72359,3.22411 l 28.6555,0 c 2.13769,-0.56467 6.69079,-2.59932 8.59543,-4.98734 0.92646,-1.16165 1.5257,-2.571 1.75063,-4.03203 l 9.80821,-46.74252 -2.66508,0.57504 -27.23727,9.46353 6.13796,-4.7547 4.89442,-23.32483 6.50787,0 -3.50582,16.70519 2.93852,-0.53478 14.43159,-5.28385 2.32357,-11.07563 c 0.19268,-0.91822 0.3659,-1.84848 0.3358,-2.78569 -0.0302,-0.93721 -0.25732,-1.87001 -0.683,-2.7085 -0.54088,-1.06537 -1.39549,-1.97367 -2.43365,-2.58319 -1.03812,-0.60951 -2.25503,-0.91929 -3.46264,-0.88046 z m 55.87918,0 3.50354,3.09671 -15.45269,73.63502 c -0.30955,1.57613 0.16835,3.28417 1.25368,4.48054 1.04155,1.14831 2.61885,1.80357 4.17971,1.73759 l 36.42949,0 1.66891,-1.71737 6.88793,-32.82414 -13.88247,-1.48123 -1.81639,0.99233 -5.45836,26.01094 -9.66985,0 12.93057,-61.61965 -2.66734,-3.16383 12.53114,0 -2.32241,11.06669 -4.43384,3.58223 19.2591,-2.5474 1.39909,-0.43966 2.48691,-11.85093 c 0.60523,-1.77696 0.42069,-3.80042 -0.4958,-5.44272 -0.56671,-1.01558 -1.40251,-1.88384 -2.40071,-2.49593 -0.99826,-0.61211 -2.15674,-0.96719 -3.33107,-1.01919 z m 119.4541,0 3.64534,3.42225 -14.79576,70.50814 -0.0466,1.5628 25.80437,12.55257 19.798,-17.43578 14.81731,-70.60998 -17.77628,0 -14.93527,71.1749 0.53779,1.50482 2.09215,3.88426 -12.22264,-5.14186 14.98751,-71.42212 z m 58.69746,0 4.13659,2.18381 -14.63809,69.75847 c -0.45779,2.47725 0.25747,4.77938 1.37624,6.6902 1.18844,2.02982 2.6913,3.549 5.03511,4.31738 l 31.59856,0 1.49531,-7.12315 -2.00134,-1.56972 -23.22431,0 4.00269,-1.64901 5.67163,-27.03007 -1.67919,-0.94311 -5.98472,0 26.4522,-8.21723 1.8164,-8.65466 -2.10571,-0.57504 -15.67505,4.93482 4.82074,-22.97578 21.11637,0 1.91965,-9.14691 z m 51.84124,0 2.98957,3.30254 -16.35349,77.92995 2.24303,1.71737 17.69681,0 6.64168,-31.64955 8.52276,-3.14928 -6.94234,33.08146 2.83865,1.71737 17.14317,0 10.9439,-52.15289 -3.42066,-0.63768 -26.39434,8.31343 0.85319,-4.06779 1.40231,1.22505 23.68507,-7.98005 4.15131,-19.78175 c 0.52965,-1.89652 0.0774,-4.03346 -1.17769,-5.56244 -1.17988,-1.43736 -3.03836,-2.30942 -4.91374,-2.30574 z m 55.70902,0 3.20059,3.03293 -12.17146,58.00723 3.51367,1.2899 25.25078,-9.38853 -3.82687,18.23337 6.04035,2.75549 -25.55139,0 -1.53387,7.3021 3.59654,1.71737 31.68815,0 c 1.37417,-0.45894 2.65008,-1.20125 3.72248,-2.16494 1.5576,-1.39945 2.675,-3.26964 3.1609,-5.29164 l 14.5235,-69.21262 186.8024,0 18.4365,-6.28066 -229.36876,0 2.86366,2.64696 -8.16312,38.9012 -6.42612,2.56305 9.25682,-44.11121 z m -415.22622,9.1469 6.26731,0 -13.59539,64.78349 -12.01722,0 6.32852,-2.75549 z m 210.06889,0 9.74808,0 -13.59423,64.78349 -13.162,0 3.08256,-1.25067 0.90882,-1.50482 z m 171.51099,0 5.69547,0 -3.90173,18.59141 -6.90955,5.78729 z"
     id="path4372" />
  <path
     id="path4368"
     d="m 429.74046,171.65577 c -0.17985,-0.004 -0.36045,-1e-5 -0.54005,0.0101 l -29.84908,0 c -1.75965,0.23963 -3.45638,0.91921 -4.88764,1.9567 -2.33549,1.69295 -3.92318,4.35473 -4.28862,7.1902 l -13.92214,66.34644 c -0.18496,1.34732 0.0662,2.75011 0.70793,3.95367 0.60669,1.13785 1.55859,2.09338 2.70139,2.7119 1.14285,0.61846 2.4721,0.89717 3.77127,0.7908 l 30.92459,0 c 2.13101,-0.23343 4.17215,-1.205 5.6819,-2.7061 1.29905,-1.29175 2.20181,-2.96631 2.56296,-4.75027 l 13.92325,-66.34644 c 0.49806,-1.64109 0.36759,-3.45916 -0.35852,-5.01537 -0.60164,-1.28934 -1.60397,-2.39332 -2.8375,-3.12466 -1.07935,-0.63992 -2.33089,-0.99295 -3.58974,-1.01695 z m -422.9957002,0.0101 18.7361102,6.28066 151.77644,0 -16.08917,76.66905 40.01244,0 c 1.63243,-0.18789 3.19805,-0.89744 4.4066,-1.99576 1.12617,-1.02354 1.93827,-2.37842 2.30318,-3.84513 l 14.26139,-67.96192 c 0.61871,-1.53225 0.63404,-3.29281 0.0418,-4.83524 -0.4955,-1.2908 -1.40821,-2.4228 -2.57202,-3.18956 -1.16381,-0.76676 -2.57306,-1.16472 -3.97209,-1.1221 l -208.9048302,0 z m 229.3484302,0 2.65713,3.17613 -16.74042,79.77358 17.50621,0 17.4064,-82.94971 z m 36.31941,0 2.18631,3.97827 -9.9047,47.20234 33.62371,-12.29059 -9.42591,6.96869 -6.21846,29.63463 -9.95465,0 4.35559,-20.7551 -13.79737,4.60813 -3.38892,16.14697 c -0.42244,1.38399 -0.31444,2.91891 0.29729,4.23216 0.71014,1.5247 2.09865,2.72692 3.72358,3.22421 l 28.65552,0 c 2.22854,-0.36002 4.30308,-1.57833 5.68526,-3.33937 0.93663,-1.19331 1.55842,-2.62513 1.78804,-4.117 l 10.01587,-47.73041 -31.37612,10.90221 7.10908,-5.5076 5.03862,-24.01063 9.53141,0 -3.50582,16.70518 14.73674,-5.39572 2.37237,-11.30946 c 0.19675,-0.93764 0.37346,-1.88795 0.34267,-2.84498 -0.0308,-0.95703 -0.26193,-1.90934 -0.69661,-2.76556 -0.55225,-1.08789 -1.42567,-2.01562 -2.48581,-2.63802 -1.06007,-0.62238 -2.3022,-0.93801 -3.53532,-0.89834 z m 55.87918,0 3.50354,3.0967 -15.45269,73.635 c -0.30955,1.57601 0.16835,3.28415 1.25368,4.48063 1.04155,1.14821 2.61885,1.80358 4.17971,1.73738 l 36.42949,0 7.03427,-33.51771 -14.17629,-1.51255 -5.78628,27.57389 -11.51683,0 13.20392,-62.92307 -2.88518,-3.42337 14.65053,0 -2.32241,11.06669 -4.43384,3.58224 19.2591,-2.5474 2.53914,-12.10153 c 0.61802,-1.81453 0.42981,-3.88094 -0.50601,-5.55795 -0.57868,-1.03705 -1.43132,-1.92347 -2.45068,-2.54852 -1.0194,-0.62504 -2.20332,-0.98734 -3.40252,-1.04043 z m 119.64358,0 3.72248,3.49385 -15.10891,71.99949 25.80436,12.55228 19.79801,-17.43567 14.81732,-70.60995 -16.92196,0 -15.2518,72.67969 3.04399,5.65301 -13.43879,-5.65301 15.25182,-72.67969 z m 59.93861,0 4.22394,2.22967 -14.94776,71.23313 c -0.46753,2.52948 0.0453,5.02154 1.4046,6.83219 0.93456,1.24503 2.25646,2.16875 3.79844,2.65472 l 31.59856,0 1.49531,-7.12303 -29.03551,0 7.81255,-3.21864 5.67163,-27.03014 -10.70003,0 29.48832,-9.16033 1.8164,-8.65465 -18.0587,5.68549 5.09868,-24.30151 21.11637,0 1.91965,-9.1469 z m 52.93617,0 3.05308,3.37192 -16.69953,79.57779 17.69681,0 6.64173,-31.6494 11.98993,-4.43025 -7.57091,36.07965 17.14317,0 10.9439,-52.15274 -30.20072,9.51274 6.53966,-31.16281 8.84832,0 -4.02417,19.17763 -8.72259,7.30543 23.68507,-7.98004 4.15131,-19.78175 c 0.52965,-1.89653 0.0774,-4.03345 -1.17769,-5.56244 -1.17988,-1.43735 -3.03836,-2.30941 -4.91374,-2.30573 z m 56.88784,0 3.26751,3.0967 -12.42909,59.23338 29.97611,-11.14612 -4.51096,21.49573 6.1686,2.81365 -26.09255,0 -1.56566,7.45637 31.68815,0 c 1.37417,-0.45883 2.65008,-1.20114 3.72248,-2.16467 1.5576,-1.39972 2.675,-3.26969 3.1609,-5.2917 l 14.5235,-69.21267 186.8024,0 18.4365,-6.28067 -225.08348,0 2.92368,2.7029 -8.33556,39.72348 -11.18106,4.45823 9.8389,-46.88461 z m -423.96462,9.1469 11.30133,0 -13.92332,66.34644 -17.17264,0 6.46244,-2.81365 z m 214.50953,0 10.34146,0 -13.92215,66.34644 -16.68708,0 6.93556,-2.81365 z"
     style="opacity:1;fill:url(#radialGradient4497);fill-opacity:1;fill-rule:evenodd;stroke:none;stroke-width:1px;stroke-linecap:butt;stroke-linejoin:miter;stroke-opacity:1" />
  <path
     id="path4488"
     style="fill:#3f3722;fill-opacity:1;fill-rule:evenodd;stroke:none;stroke-width:1px;stroke-linecap:butt;stroke-linejoin:miter;stroke-opacity:1"
     d="m 629.95997,242.84054 4.04158,1.505 6.1686,2.81366 -4.16977,-1.56362 z m -0.20872,-27.06443 6.42612,-2.56295 4.17314,0.87911 -11.18106,4.45822 z m 11.72564,-44.11041 4.2855,1.8e-4 2.92368,2.7029 -4.3453,-0.0565 z m -27.48351,0 3.7046,1.8e-4 3.26751,3.09671 -3.77153,-0.0638 z m -38.76193,33.52533 6.90955,-5.7873 3.03041,0.58668 -8.72259,7.30545 -1.40231,-1.2255 z m -16.94709,-33.52533 2.52578,1.8e-4 3.05308,3.37192 -2.58907,-0.0698 z m -51.8413,0 1.43091,1.8e-4 4.22394,2.22968 -1.51798,-0.0464 z m -58.69718,-2.8e-4 0.18948,4.6e-4 3.72248,3.49386 -0.26662,-0.072 z m -103.66676,9.14737 2.11939,-4.6e-4 2.66734,3.16383 -1.90155,0.26 z m 6.98437,38.77209 1.81639,-0.99235 13.88247,1.48124 -1.52257,1.02412 z m -17.30311,27.57432 2.1749,-1.56335 9.6696,-2.7e-4 -0.32767,1.56362 z m -36.90945,-49.64121 14.73674,-5.39573 2.63099,-0.42337 -14.43172,5.28434 z m -18.17329,12.81304 7.10908,-5.5076 3.16536,-0.68627 -6.13796,4.75469 z m -5.95874,36.82817 3.43748,-1.56362 6.84479,0 -0.32762,1.56362 z m -92.31773,-2.81366 5.3492,-1.505 -6.32829,2.75531 -5.48335,1.56335 z" />
  <path
     id="path5216"
     d="M 43.48602,6.7464386 47.62815,14.081489 29.25022,101.097 92.51596,78.439599 74.8015,91.286539 63.59741,144.33149 l -18.7513,0 7.74674,-36.67517 -25.96363,8.4955 -6.60747,31.28771 c -0.66213,3.07443 0.10279,6.41246 2.04499,8.92274 1.08056,1.39664 2.50717,2.53819 4.12403,3.30196 l 52.50334,0 c 4.18492,-0.23024 8.2751,-1.8578 11.42485,-4.54642 2.97213,-2.53699 5.0933,-6.00097 5.97063,-9.7503 l 18.4686,-87.440721 -59.04139,20.09903 13.35996,-10.15374 9.23382,-43.71984 17.95339,0 -6.38878,30.25171 27.72694,-9.94528 4.68308,-22.17104 c 0.32109,-1.5203 0.58834,-3.07057 0.4523,-4.61693 -0.13606,-1.54638 -0.64985,-3.05321 -1.43159,-4.40642 -1.12825,-1.95295 -2.79566,-3.6084702 -4.78013,-4.7465602 -1.98441,-1.13809 -4.28104,-1.7558702 -6.58503,-1.7712802 l -66.25474,0 z m 197.82764,0 4.4708,4.9736804 -31.24619,147.944111 31.6686,0 10.58751,-50.12775 -19.88853,0 44.12613,-14.139101 -13.57332,64.266851 30.00233,0 29.35378,-138.982981 c 0.47801,-3.12165 -0.35769,-6.41382 -2.27434,-8.96113 -2.25038,-2.9908502 -5.97362,-4.8838502 -9.78423,-4.9736804 l -73.44254,0 z m 99.27818,0 5.77112,6.2171004 -30.98375,146.700691 33.33591,0 12.3231,-58.34531 22.55962,-8.167781 -14.04801,66.513091 32.29478,0 20.30554,-96.142561 -56.83319,17.5344 12.63141,-59.80444 16.66793,0 -7.96434,37.71117 -16.38741,13.46814 44.56883,-14.71156 7.70189,-36.46775 c 0.96734,-3.50462 0.10335,-7.43935 -2.25187,-10.25433 -2.22918,-2.6643102 -5.73633,-4.2731004 -9.269,-4.2508604 l -70.42256,0 z m 252.33649,0 5.77113,6.2171004 -30.98386,146.700691 33.33606,0 12.3231,-58.34531 22.55964,-8.167781 -14.04801,66.513091 32.29368,0 20.3066,-96.142561 -56.83318,17.5344 12.63138,-59.80444 16.668,0 -7.96545,37.71117 -16.38633,13.46814 44.56778,-14.71156 7.7029,-36.46775 c 0.9674,-3.50462 0.1033,-7.43935 -2.2519,-10.25433 -2.2292,-2.6643102 -5.7363,-4.2731004 -9.269,-4.2508604 l -70.42254,0 z m 103.59624,0 7.9709,4.1108604 -27.7345,131.318181 c -1.1435,4.29905 -0.1218,9.09079 2.6851,12.59389 1.8217,2.27358 4.3533,4.00122 7.1717,4.89486 l 59.5226,0 2.7746,-13.13212 -54.6955,0 14.6977,-5.93399 10.5234,-49.829071 -20.1551,0 55.4933,-16.88729 3.37,-15.95497 -33.9846,10.48146 9.8024,-46.41514 39.778,0 3.2195,-15.2466704 -80.4395,0 z m 92.226,0 6.7163,5.8696904 -31.0574,147.048101 33.0011,0 15.0027,-71.038761 11.0514,-3.45959 2.3704,74.498351 30.6274,0 -6.7834,-82.702431 14.4778,-4.53189 1.183,-5.60317 12.6891,-60.0803004 -26.2239,0 -12.6889,60.0803004 -23.7693,7.91163 14.3594,-67.9919304 -40.9557,0 z m -655.25755,5.3e-4 -2.97623,14.0893204 32.95615,0 -29.32069,138.827441 32.8538,0 28.24112,-133.715841 -15.56923,-5.1116 50.01349,0 2.97627,-14.0893204 -99.17468,0 z m 348.31195,0 -2.97518,14.0893204 32.95621,0 -29.3218,138.827441 32.85382,0 28.24219,-133.715841 -15.56924,-5.1116 50.01354,0 2.97519,-14.0893204 -99.17473,0 z m -206.53981,15.3327404 21.25176,0 -11.96895,56.67049 -23.1271,8.88128 13.84429,-65.55177 z"
     style="opacity:1;fill:url(#radialGradient5218);fill-opacity:1;fill-rule:evenodd;stroke:none;stroke-width:1px;stroke-linecap:butt;stroke-linejoin:miter;stroke-opacity:1" />
  <path
     id="path4433"
     d="M 43.48602,6.7464386 47.62815,14.081489 29.25022,101.097 92.51596,78.439599 74.8015,91.286539 63.59741,144.33149 l -18.7513,0 7.74674,-36.67517 -25.96363,8.4955 -6.60747,31.28771 c -0.66213,3.07443 0.10279,6.41246 2.04499,8.92274 1.08056,1.39664 2.50717,2.53819 4.12403,3.30196 l 52.50334,0 c 4.18492,-0.23024 8.2751,-1.8578 11.42485,-4.54642 2.97213,-2.53699 5.0933,-6.00097 5.97063,-9.7503 l 18.4686,-87.440721 -59.04139,20.09903 13.35996,-10.15374 9.23382,-43.71984 17.95339,0 -6.38878,30.25171 27.72694,-9.94528 4.68308,-22.17104 c 0.32109,-1.5203 0.58834,-3.07057 0.4523,-4.61693 -0.13606,-1.54638 -0.64985,-3.05321 -1.43159,-4.40642 -1.12825,-1.95295 -2.79566,-3.6084702 -4.78013,-4.7465602 -1.98441,-1.13809 -4.28104,-1.7558702 -6.58503,-1.7712802 l -66.25474,0 z m 197.82764,0 4.4708,4.9736804 -31.24619,147.944111 31.6686,0 10.58751,-50.12775 -19.88853,0 44.12613,-14.139101 -13.57332,64.266851 30.00233,0 29.35378,-138.982981 c 0.47801,-3.12165 -0.35769,-6.41382 -2.27434,-8.96113 -2.25038,-2.9908502 -5.97362,-4.8838502 -9.78423,-4.9736804 l -73.44254,0 z m 99.27818,0 5.77112,6.2171004 -30.98375,146.700691 33.33591,0 12.3231,-58.34531 22.55962,-8.167781 -14.04801,66.513091 32.29478,0 20.30554,-96.142561 -56.83319,17.5344 12.63141,-59.80444 16.66793,0 -7.96434,37.71117 -16.38741,13.46814 44.56883,-14.71156 7.70189,-36.46775 c 0.96734,-3.50462 0.10335,-7.43935 -2.25187,-10.25433 -2.22918,-2.6643102 -5.73633,-4.2731004 -9.269,-4.2508604 l -70.42256,0 z m 252.33649,0 5.77113,6.2171004 -30.98386,146.700691 33.33606,0 12.3231,-58.34531 22.55964,-8.167781 -14.04801,66.513091 32.29368,0 20.3066,-96.142561 -56.83318,17.5344 12.63138,-59.80444 16.668,0 -7.96545,37.71117 -16.38633,13.46814 44.56778,-14.71156 7.7029,-36.46775 c 0.9674,-3.50462 0.1033,-7.43935 -2.2519,-10.25433 -2.2292,-2.6643102 -5.7363,-4.2731004 -9.269,-4.2508604 l -70.42254,0 z m 103.59624,0 7.9709,4.1108604 -27.7345,131.318181 c -1.1435,4.29905 -0.1218,9.09079 2.6851,12.59389 1.8217,2.27358 4.3533,4.00122 7.1717,4.89486 l 59.5226,0 2.7746,-13.13212 -54.6955,0 14.6977,-5.93399 10.5234,-49.829071 -20.1551,0 55.4933,-16.88729 3.37,-15.95497 -33.9846,10.48146 9.8024,-46.41514 39.778,0 3.2195,-15.2466704 -80.4395,0 z m 92.226,0 6.7163,5.8696904 -31.0574,147.048101 33.0011,0 15.0027,-71.038761 11.0514,-3.45959 2.3704,74.498351 30.6274,0 -6.7834,-82.702431 14.4778,-4.53189 1.183,-5.60317 12.6891,-60.0803004 -26.2239,0 -12.6889,60.0803004 -23.7693,7.91163 14.3594,-67.9919304 -40.9557,0 z m -655.25755,5.3e-4 -2.97623,14.0893204 32.95615,0 -29.32069,138.827441 32.8538,0 28.24112,-133.715841 -15.56923,-5.1116 50.01349,0 2.97627,-14.0893204 -99.17468,0 z m 348.31195,0 -2.97518,14.0893204 32.95621,0 -29.3218,138.827441 32.85382,0 28.24219,-133.715841 -15.56924,-5.1116 50.01354,0 2.97519,-14.0893204 -99.17473,0 z m -206.53981,15.3327404 21.25176,0 -11.96895,56.67049 -23.1271,8.88128 13.84429,-65.55177 z"
     style="opacity:1;fill:url(#radialGradient4435);fill-opacity:1;fill-rule:evenodd;stroke:none;stroke-width:1px;stroke-linecap:butt;stroke-linejoin:miter;stroke-opacity:1" />
  <path
     style="opacity:1;fill:url(#radialGradient4509);fill-opacity:1;fill-rule:evenodd;stroke:none;stroke-width:1px;stroke-linecap:butt;stroke-linejoin:miter;stroke-opacity:1"
     d="M 43.48602,6.7464386 47.62815,14.081489 29.25022,101.097 92.51596,78.439599 74.8015,91.286539 63.59741,144.33149 l -18.7513,0 7.74674,-36.67517 -25.96363,8.4955 -6.60747,31.28771 c -0.66213,3.07443 0.10279,6.41246 2.04499,8.92274 1.08056,1.39664 2.50717,2.53819 4.12403,3.30196 l 52.50334,0 c 4.18492,-0.23024 8.2751,-1.8578 11.42485,-4.54642 2.97213,-2.53699 5.0933,-6.00097 5.97063,-9.7503 l 18.4686,-87.440721 -59.04139,20.09903 13.35996,-10.15374 9.23382,-43.71984 17.95339,0 -6.38878,30.25171 27.72694,-9.94528 4.68308,-22.17104 c 0.32109,-1.5203 0.58834,-3.07057 0.4523,-4.61693 -0.13606,-1.54638 -0.64985,-3.05321 -1.43159,-4.40642 -1.12825,-1.95295 -2.79566,-3.6084702 -4.78013,-4.7465602 -1.98441,-1.13809 -4.28104,-1.7558702 -6.58503,-1.7712802 l -66.25474,0 z m 197.82764,0 4.4708,4.9736804 -31.24619,147.944111 31.6686,0 10.58751,-50.12775 -19.88853,0 44.12613,-14.139101 -13.57332,64.266851 30.00233,0 29.35378,-138.982981 c 0.47801,-3.12165 -0.35769,-6.41382 -2.27434,-8.96113 -2.25038,-2.9908502 -5.97362,-4.8838502 -9.78423,-4.9736804 l -73.44254,0 z m 99.27818,0 5.77112,6.2171004 -30.98375,146.700691 33.33591,0 12.3231,-58.34531 22.55962,-8.167781 -14.04801,66.513091 32.29478,0 20.30554,-96.142561 -56.83319,17.5344 12.63141,-59.80444 16.66793,0 -7.96434,37.71117 -16.38741,13.46814 44.56883,-14.71156 7.70189,-36.46775 c 0.96734,-3.50462 0.10335,-7.43935 -2.25187,-10.25433 -2.22918,-2.6643102 -5.73633,-4.2731004 -9.269,-4.2508604 l -70.42256,0 z m 252.33649,0 5.77113,6.2171004 -30.98386,146.700691 33.33606,0 12.3231,-58.34531 22.55964,-8.167781 -14.04801,66.513091 32.29368,0 20.3066,-96.142561 -56.83318,17.5344 12.63138,-59.80444 16.668,0 -7.96545,37.71117 -16.38633,13.46814 44.56778,-14.71156 7.7029,-36.46775 c 0.9674,-3.50462 0.1033,-7.43935 -2.2519,-10.25433 -2.2292,-2.6643102 -5.7363,-4.2731004 -9.269,-4.2508604 l -70.42254,0 z m 103.59624,0 7.9709,4.1108604 -27.7345,131.318181 c -1.1435,4.29905 -0.1218,9.09079 2.6851,12.59389 1.8217,2.27358 4.3533,4.00122 7.1717,4.89486 l 59.5226,0 2.7746,-13.13212 -54.6955,0 14.6977,-5.93399 10.5234,-49.829071 -20.1551,0 55.4933,-16.88729 3.37,-15.95497 -33.9846,10.48146 9.8024,-46.41514 39.778,0 3.2195,-15.2466704 -80.4395,0 z m 92.226,0 6.7163,5.8696904 -31.0574,147.048101 33.0011,0 15.0027,-71.038761 11.0514,-3.45959 2.3704,74.498351 30.6274,0 -6.7834,-82.702431 14.4778,-4.53189 1.183,-5.60317 12.6891,-60.0803004 -26.2239,0 -12.6889,60.0803004 -23.7693,7.91163 14.3594,-67.9919304 -40.9557,0 z m -655.25755,5.3e-4 -2.97623,14.0893204 32.95615,0 -29.32069,138.827441 32.8538,0 28.24112,-133.715841 -15.56923,-5.1116 50.01349,0 2.97627,-14.0893204 -99.17468,0 z m 348.31195,0 -2.97518,14.0893204 32.95621,0 -29.3218,138.827441 32.85382,0 28.24219,-133.715841 -15.56924,-5.1116 50.01354,0 2.97519,-14.0893204 -99.17473,0 z m -206.53981,15.3327404 21.25176,0 -11.96895,56.67049 -23.1271,8.88128 13.84429,-65.55177 z"
     id="path4507" />
  <path
     style="opacity:1;fill:url(#radialGradient4431);fill-opacity:1;fill-rule:evenodd;stroke:none;stroke-width:1px;stroke-linecap:butt;stroke-linejoin:miter;stroke-opacity:1"
     d="M 43.48602,6.7464386 47.62815,14.081489 29.25022,101.097 92.51596,78.439599 74.8015,91.286539 63.59741,144.33149 l -18.7513,0 7.74674,-36.67517 -25.96363,8.4955 -6.60747,31.28771 c -0.66213,3.07443 0.10279,6.41246 2.04499,8.92274 1.08056,1.39664 2.50717,2.53819 4.12403,3.30196 l 52.50334,0 c 4.18492,-0.23024 8.2751,-1.8578 11.42485,-4.54642 2.97213,-2.53699 5.0933,-6.00097 5.97063,-9.7503 l 18.4686,-87.440721 -59.04139,20.09903 13.35996,-10.15374 9.23382,-43.71984 17.95339,0 -6.38878,30.25171 27.72694,-9.94528 4.68308,-22.17104 c 0.32109,-1.5203 0.58834,-3.07057 0.4523,-4.61693 -0.13606,-1.54638 -0.64985,-3.05321 -1.43159,-4.40642 -1.12825,-1.95295 -2.79566,-3.6084702 -4.78013,-4.7465602 -1.98441,-1.13809 -4.28104,-1.7558702 -6.58503,-1.7712802 l -66.25474,0 z m 197.82764,0 4.4708,4.9736804 -31.24619,147.944111 31.6686,0 10.58751,-50.12775 -19.88853,0 44.12613,-14.139101 -13.57332,64.266851 30.00233,0 29.35378,-138.982981 c 0.47801,-3.12165 -0.35769,-6.41382 -2.27434,-8.96113 -2.25038,-2.9908502 -5.97362,-4.8838502 -9.78423,-4.9736804 l -73.44254,0 z m 99.27818,0 5.77112,6.2171004 -30.98375,146.700691 33.33591,0 12.3231,-58.34531 22.55962,-8.167781 -14.04801,66.513091 32.29478,0 20.30554,-96.142561 -56.83319,17.5344 12.63141,-59.80444 16.66793,0 -7.96434,37.71117 -16.38741,13.46814 44.56883,-14.71156 7.70189,-36.46775 c 0.96734,-3.50462 0.10335,-7.43935 -2.25187,-10.25433 -2.22918,-2.6643102 -5.73633,-4.2731004 -9.269,-4.2508604 l -70.42256,0 z m 252.33649,0 5.77113,6.2171004 -30.98386,146.700691 33.33606,0 12.3231,-58.34531 22.55964,-8.167781 -14.04801,66.513091 32.29368,0 20.3066,-96.142561 -56.83318,17.5344 12.63138,-59.80444 16.668,0 -7.96545,37.71117 -16.38633,13.46814 44.56778,-14.71156 7.7029,-36.46775 c 0.9674,-3.50462 0.1033,-7.43935 -2.2519,-10.25433 -2.2292,-2.6643102 -5.7363,-4.2731004 -9.269,-4.2508604 l -70.42254,0 z m 103.59624,0 7.9709,4.1108604 -27.7345,131.318181 c -1.1435,4.29905 -0.1218,9.09079 2.6851,12.59389 1.8217,2.27358 4.3533,4.00122 7.1717,4.89486 l 59.5226,0 2.7746,-13.13212 -54.6955,0 14.6977,-5.93399 10.5234,-49.829071 -20.1551,0 55.4933,-16.88729 3.37,-15.95497 -33.9846,10.48146 9.8024,-46.41514 39.778,0 3.2195,-15.2466704 -80.4395,0 z m 92.226,0 6.7163,5.8696904 -31.0574,147.048101 33.0011,0 15.0027,-71.038761 11.0514,-3.45959 2.3704,74.498351 30.6274,0 -6.7834,-82.702431 14.4778,-4.53189 1.183,-5.60317 12.6891,-60.0803004 -26.2239,0 -12.6889,60.0803004 -23.7693,7.91163 14.3594,-67.9919304 -40.9557,0 z m -655.25755,5.3e-4 -2.97623,14.0893204 32.95615,0 -29.32069,138.827441 32.8538,0 28.24112,-133.715841 -15.56923,-5.1116 50.01349,0 2.97627,-14.0893204 -99.17468,0 z m 348.31195,0 -2.97518,14.0893204 32.95621,0 -29.3218,138.827441 32.85382,0 28.24219,-133.715841 -15.56924,-5.1116 50.01354,0 2.97519,-14.0893204 -99.17473,0 z m -206.53981,15.3327404 21.25176,0 -11.96895,56.67049 -23.1271,8.88128 13.84429,-65.55177 z"
     id="path4423" />
  <g
     style="opacity:0.25"
     clip-path="url(#clipPath5208)"
     id="g5204">
    <path
       transform="matrix(0.91240015,0,0,0.85345953,-111.50145,-612.86433)"
       clip-path="none"
       style="color:#000000;font-style:normal;font-variant:normal;font-weight:normal;font-stretch:normal;font-size:medium;line-height:normal;font-family:sans-serif;text-indent:0;text-align:start;text-decoration:none;text-decoration-line:none;text-decoration-style:solid;text-decoration-color:#000000;letter-spacing:normal;word-spacing:normal;text-transform:none;direction:ltr;block-progression:tb;writing-mode:lr-tb;baseline-shift:baseline;text-anchor:start;white-space:normal;clip-rule:nonzero;display:inline;overflow:visible;visibility:visible;opacity:0.25;isolation:auto;mix-blend-mode:normal;color-interpolation:sRGB;color-interpolation-filters:linearRGB;solid-color:#000000;solid-opacity:1;fill:none;fill-opacity:1;fill-rule:evenodd;stroke:#ffffff;stroke-width:1.13322425;stroke-linecap:butt;stroke-linejoin:miter;stroke-miterlimit:4;stroke-dasharray:none;stroke-dashoffset:0;stroke-opacity:1;color-rendering:auto;image-rendering:auto;shape-rendering:auto;text-rendering:auto;enable-background:accumulate;filter:url(#filter4648)"
       d="m 400.1055,919.03734 -19.78906,22.73438 -0.1836,0.93359 0.39649,0.34375 20.90234,-24.01172 -1.32617,0 z m 47.59766,0 17.125,19.12891 0.24218,-1.23047 -16.02539,-17.89844 -1.34179,0 z m 123.86132,0 -25.33593,29.99414 -0.39649,2.01758 27.04102,-32.01172 -1.3086,0 z m -254.84179,5.8125 -0.77539,0.63281 15.81054,19.30274 0.25,-1.27344 -15.28515,-18.66211 z m 485.31054,2.54492 -0.24609,1.25 15.5,18.15039 0.24609,-1.25 -15.5,-18.15039 z m -186.22851,3.84766 -0.19727,1 10.81641,0 6.42383,8.55469 0.25976,-1.31836 -6.18554,-8.23633 -11.11719,0 z m 26.33398,20.26172 -0.25976,1.32031 14.70312,19.58008 0.25977,-1.32031 -14.70313,-19.58008 z m 92.625,0.0762 -0.24023,1.2168 11.27929,12.25 0,18.44922 -22.80664,28.02544 -0.41015,2.0898 24.21679,-29.75978 0,-7.61523 9.3125,0 2.53126,-1 -11.84376,0 0,-10.58008 -12.03906,-13.07617 z m -254.80273,1.98828 -0.24219,1.23047 9.65039,10.7793 7.03906,0 0.19532,-1 -6.78711,0 -9.85547,-11.00977 z m -137.96094,2.14258 -0.25,1.27344 15.13477,18.47656 0.25,-1.27344 -15.13477,-18.47656 z m 484.66211,0.52344 -0.24414,1.25195 15.74805,18.44336 0.24609,-1.25391 -15.75,-18.4414 z m -129.32227,1.19922 -1.56835,0.52734 -8.22657,12.12695 1.56055,-0.51758 8.23437,-12.13671 z m -11.39257,15.00781 -17.27539,25.46484 -0.49219,2.50589 18.97656,-27.97073 -1.20898,0 z m 75.68945,2.79492 -0.19531,1 18.78906,0 0.19726,-1 -18.79101,0 z m -223.03711,12.6582 -0.26562,1.34571 12.21289,16.9746 0.9375,-0.4082 -12.88477,-17.91211 z m -167.89648,2.85742 -0.25,1.27344 15.47656,18.89655 0.25,-1.2735 -15.47656,-18.89649 z m 119.69921,5.42188 -17.02539,19.85941 c 0.37939,0.1027 0.76714,0.1673 1.15821,0.1875 l 15.47461,-18.05472 0.39257,-1.99219 z m 12.45899,0.83398 -0.19727,1 15.88477,0 0.19726,-1 -15.88476,0 z m 48.60351,10.48443 6.28711,8.7382 1.23243,0 -6.28711,-8.7382 -1.23243,0 z"
       id="path5202" />
    <path
       id="path4162"
       d="m 400.1055,919.03734 -19.78906,22.73438 -0.1836,0.93359 0.39649,0.34375 20.90234,-24.01172 -1.32617,0 z m 47.59766,0 17.125,19.12891 0.24218,-1.23047 -16.02539,-17.89844 -1.34179,0 z m 123.86132,0 -25.33593,29.99414 -0.39649,2.01758 27.04102,-32.01172 -1.3086,0 z m -254.84179,5.8125 -0.77539,0.63281 15.81054,19.30274 0.25,-1.27344 -15.28515,-18.66211 z m 485.31054,2.54492 -0.24609,1.25 15.5,18.15039 0.24609,-1.25 -15.5,-18.15039 z m -186.22851,3.84766 -0.19727,1 10.81641,0 6.42383,8.55469 0.25976,-1.31836 -6.18554,-8.23633 -11.11719,0 z m 26.33398,20.26172 -0.25976,1.32031 14.70312,19.58008 0.25977,-1.32031 -14.70313,-19.58008 z m 92.625,0.0762 -0.24023,1.2168 11.27929,12.25 0,18.44922 -22.80664,28.02544 -0.41015,2.0898 24.21679,-29.75978 0,-7.61523 9.3125,0 2.53126,-1 -11.84376,0 0,-10.58008 -12.03906,-13.07617 z m -254.80273,1.98828 -0.24219,1.23047 9.65039,10.7793 7.03906,0 0.19532,-1 -6.78711,0 -9.85547,-11.00977 z m -137.96094,2.14258 -0.25,1.27344 15.13477,18.47656 0.25,-1.27344 -15.13477,-18.47656 z m 484.66211,0.52344 -0.24414,1.25195 15.74805,18.44336 0.24609,-1.25391 -15.75,-18.4414 z m -129.32227,1.19922 -1.56835,0.52734 -8.22657,12.12695 1.56055,-0.51758 8.23437,-12.13671 z m -11.39257,15.00781 -17.27539,25.46484 -0.49219,2.50589 18.97656,-27.97073 -1.20898,0 z m 75.68945,2.79492 -0.19531,1 18.78906,0 0.19726,-1 -18.79101,0 z m -223.03711,12.6582 -0.26562,1.34571 12.21289,16.9746 0.9375,-0.4082 -12.88477,-17.91211 z m -167.89648,2.85742 -0.25,1.27344 15.47656,18.89655 0.25,-1.2735 -15.47656,-18.89649 z m 119.69921,5.42188 -17.02539,19.85941 c 0.37939,0.1027 0.76714,0.1673 1.15821,0.1875 l 15.47461,-18.05472 0.39257,-1.99219 z m 12.45899,0.83398 -0.19727,1 15.88477,0 0.19726,-1 -15.88476,0 z m 48.60351,10.48443 6.28711,8.7382 1.23243,0 -6.28711,-8.7382 -1.23243,0 z"
       style="color:#000000;font-style:normal;font-variant:normal;font-weight:normal;font-stretch:normal;font-size:medium;line-height:normal;font-family:sans-serif;text-indent:0;text-align:start;text-decoration:none;text-decoration-line:none;text-decoration-style:solid;text-decoration-color:#000000;letter-spacing:normal;word-spacing:normal;text-transform:none;direction:ltr;block-progression:tb;writing-mode:lr-tb;baseline-shift:baseline;text-anchor:start;white-space:normal;clip-rule:nonzero;display:inline;overflow:visible;visibility:visible;opacity:1;isolation:auto;mix-blend-mode:normal;color-interpolation:sRGB;color-interpolation-filters:linearRGB;solid-color:#000000;solid-opacity:1;fill:url(#radialGradient4619);fill-opacity:1;fill-rule:evenodd;stroke:none;stroke-width:1.13322425;stroke-linecap:butt;stroke-linejoin:miter;stroke-miterlimit:4;stroke-dasharray:none;stroke-dashoffset:0;stroke-opacity:1;color-rendering:auto;image-rendering:auto;shape-rendering:auto;text-rendering:auto;enable-background:accumulate;filter:url(#filter4648)"
       clip-path="none"
       transform="matrix(0.91240015,0,0,0.85345953,-111.50145,-612.86433)" />
  </g>
</svg>
